<mxfile host="app.diagrams.net" modified="2023-04-20T13:19:05.642Z" agent="Mozilla/5.0 (Windows NT 10.0; Win64; x64) AppleWebKit/537.36 (KHTML, like Gecko) Chrome/111.0.0.0 Safari/537.36 OPR/97.0.0.0" version="21.1.8" etag="gevhu1KkIHfeqOVf714v" type="github">
  <diagram name="Page-1" id="9iaAqz8Yx-VLDb_eIway">
    <mxGraphModel>
      <root>
        <mxCell id="0" />
        <mxCell id="1" parent="0" />
      </root>
    </mxGraphModel>
  </diagram>
</mxfile>
